<svg version="1.1" id="Layer_1" xmlns="http://www.w3.org/2000/svg" xmlns:xlink="http://www.w3.org/1999/xlink" x="0px" y="0px"
	 width="100%" viewBox="0 0 3464 3464" enable-background="new 0 0 3464 3464" xml:space="preserve">
<path fill="#000000" opacity="1.000000" stroke="none" 
	d="
M1508.000000,3466.000000 
	C1005.333496,3466.000000 503.666962,3466.000000 2.000337,3466.000000 
	C2.000224,2311.333740 2.000224,1156.667603 2.000112,2.001111 
	C1156.665894,2.000741 2311.331787,2.000741 3465.998047,2.000370 
	C3465.998779,1156.665405 3465.998779,2311.330811 3465.999512,3465.998047 
	C2813.666748,3466.000000 2161.333252,3466.000000 1508.000000,3466.000000 
M3263.654785,1895.308838 
	C3254.113525,1883.071045 3244.572510,1870.833252 3234.328125,1857.693848 
	C3241.420898,1856.569336 3247.053955,1856.191284 3252.396973,1854.743652 
	C3282.134033,1846.686768 3303.139160,1818.818970 3303.570557,1786.119995 
	C3303.983643,1754.804810 3303.614990,1723.479858 3303.679688,1692.159302 
	C3303.750000,1658.000366 3277.023193,1619.946899 3231.163574,1620.371460 
	C3150.536377,1621.117920 3069.896729,1620.531006 2989.262451,1620.529663 
	C2986.354980,1620.529663 2983.447754,1620.817383 2980.336426,1620.981812 
	C2980.336426,1738.417725 2980.336426,1855.210938 2980.336426,1972.303589 
	C3003.741211,1972.303589 3026.586426,1972.303589 3049.983398,1972.303589 
	C3049.983398,1959.075439 3049.984131,1946.436157 3049.983154,1933.796753 
	C3049.982422,1921.135132 3049.873779,1908.472534 3050.008057,1895.812378 
	C3050.140869,1883.286621 3049.367432,1870.708252 3050.566650,1857.931641 
	C3054.383301,1857.740479 3057.007568,1857.515259 3059.633545,1857.492065 
	C3084.289307,1857.274292 3108.950195,1857.310547 3133.597656,1856.747070 
	C3139.968506,1856.601562 3143.884033,1858.596558 3147.729248,1863.660889 
	C3173.913330,1898.146118 3200.499023,1932.326294 3226.756348,1966.756470 
	C3230.085938,1971.122925 3233.456299,1973.150024 3239.158447,1973.024048 
	C3257.809082,1972.611816 3276.473389,1972.857666 3295.132568,1972.798584 
	C3297.742188,1972.790283 3300.350586,1972.491821 3303.712891,1972.280396 
	C3303.712891,1966.943604 3303.371338,1961.984863 3303.793945,1957.092041 
	C3304.401611,1950.057251 3302.377441,1944.449097 3297.800293,1938.904663 
	C3286.353516,1925.038696 3275.543213,1910.647339 3263.654785,1895.308838 
M122.661018,1641.669434 
	C109.734093,1655.829590 103.608223,1672.497925 103.633736,1691.666992 
	C103.725929,1760.959595 103.617935,1830.252563 103.694939,1899.545166 
	C103.744545,1944.179565 132.228348,1972.792236 176.472046,1972.800171 
	C268.751312,1972.816528 361.030548,1972.793823 453.309814,1972.787231 
	C456.588409,1972.786987 459.867035,1972.787354 463.019012,1972.787354 
	C464.862885,1960.039551 464.416016,1903.723999 462.340820,1896.049072 
	C451.023346,1896.049072 439.489655,1896.049072 427.319550,1896.049072 
	C427.319550,1892.722290 427.319397,1890.119507 427.319580,1887.516724 
	C427.323303,1830.550171 427.326385,1773.583496 427.331726,1716.616943 
	C427.332397,1709.287842 427.322266,1701.958740 427.355347,1694.629761 
	C427.546417,1652.312866 396.243500,1618.602051 351.699158,1619.966919 
	C292.456451,1621.781982 233.115250,1620.538452 173.817505,1620.312134 
	C154.134201,1620.236816 137.270737,1626.219971 122.661018,1641.669434 
M1711.750610,1704.694824 
	C1697.111450,1723.830200 1682.472290,1742.965576 1667.529785,1762.497437 
	C1665.118164,1759.517944 1663.616577,1757.742432 1662.200562,1755.901245 
	C1629.297119,1713.122681 1596.297607,1670.416992 1563.640015,1627.451416 
	C1559.540649,1622.058105 1555.313354,1620.083130 1548.688477,1620.229370 
	C1530.367676,1620.633911 1512.031738,1620.324585 1493.701782,1620.360229 
	C1491.156006,1620.365234 1488.610962,1620.724731 1486.155762,1620.913208 
	C1486.155762,1738.532471 1486.155762,1855.414673 1486.155762,1972.523193 
	C1509.487793,1972.523193 1532.328979,1972.523193 1556.098389,1972.523193 
	C1556.098389,1894.739380 1556.098389,1817.683716 1556.098389,1740.628174 
	C1556.632446,1740.455322 1557.166382,1740.282593 1557.700439,1740.109741 
	C1594.093384,1786.957397 1630.486450,1833.805176 1666.696045,1880.416748 
	C1668.017090,1879.864502 1668.434326,1879.824463 1668.609863,1879.597656 
	C1703.661743,1834.278198 1738.695679,1788.944824 1773.737915,1743.618042 
	C1774.550659,1742.566406 1775.435547,1741.567993 1776.333862,1740.587769 
	C1776.481323,1740.426880 1776.880371,1740.430420 1777.149780,1740.464233 
	C1777.474243,1740.504639 1777.784424,1740.658936 1778.794678,1740.994263 
	C1778.794678,1817.936523 1778.794678,1895.111816 1778.794678,1972.280029 
	C1802.577393,1972.280029 1825.666138,1972.280029 1848.586914,1972.280029 
	C1848.586914,1854.494141 1848.586914,1737.684937 1848.586914,1620.639893 
	C1824.184937,1620.639893 1800.558472,1620.639893 1776.381836,1620.639893 
	C1755.201904,1648.127441 1733.866455,1675.816772 1711.750610,1704.694824 
M2227.408203,1823.000366 
	C2227.415771,1781.350952 2227.624023,1739.699951 2227.274658,1698.053589 
	C2227.197266,1688.827271 2226.219238,1679.327881 2223.814453,1670.453369 
	C2216.075195,1641.890625 2189.787109,1620.550171 2162.264893,1620.449951 
	C2097.959473,1620.215698 2033.652222,1620.370728 1969.345825,1620.449097 
	C1958.493652,1620.462402 1948.116577,1623.068970 1938.901733,1628.783936 
	C1915.886475,1643.057739 1903.875366,1663.986328 1903.816406,1691.054810 
	C1903.616821,1782.682861 1903.729980,1874.311401 1903.758057,1965.939819 
	C1903.758667,1968.110596 1904.163330,1970.281494 1904.370605,1972.362549 
	C1927.705078,1972.362549 1950.249023,1972.362549 1973.630859,1972.362549 
	C1973.630859,1934.627808 1973.630859,1897.480469 1973.630859,1860.075195 
	C2034.897827,1860.075195 2095.316162,1860.075195 2156.462646,1860.075195 
	C2156.462646,1897.798340 2156.462646,1934.973755 2156.462646,1972.478638 
	C2180.332275,1972.478638 2203.465576,1972.478638 2227.408203,1972.478638 
	C2227.408203,1922.807983 2227.408203,1873.904297 2227.408203,1823.000366 
M2891.119385,1808.950806 
	C2891.119385,1792.367676 2891.119385,1775.784424 2891.119385,1758.112793 
	C2829.359375,1758.112793 2768.595459,1758.112793 2708.211914,1758.112793 
	C2708.211914,1737.177734 2708.211914,1717.358276 2708.211914,1696.866699 
	C2784.151123,1696.866699 2859.373779,1696.866699 2934.935547,1696.866699 
	C2934.935547,1671.084839 2934.935547,1646.005615 2934.935547,1621.079834 
	C2835.101074,1621.079834 2735.978271,1621.079834 2637.017578,1621.079834 
	C2637.017578,1738.618164 2637.017578,1855.413818 2637.017578,1972.195312 
	C2736.838867,1972.195312 2835.981201,1972.195312 2934.921387,1972.195312 
	C2934.921387,1946.578247 2934.921387,1921.741455 2934.921387,1895.951782 
	C2858.758301,1895.951782 2783.285645,1895.951782 2708.094727,1895.951782 
	C2708.094727,1875.103149 2708.094727,1855.228394 2708.094727,1834.531372 
	C2769.207275,1834.531372 2829.724854,1834.531372 2891.112061,1834.531372 
	C2891.112061,1826.117554 2891.112061,1818.520996 2891.119385,1808.950806 
M427.315277,1381.000366 
	C427.325958,1347.667114 427.406525,1314.333496 427.288269,1281.000732 
	C427.264709,1274.355225 426.968933,1267.637695 425.964966,1261.081177 
	C421.280914,1230.490967 393.604889,1201.510376 358.355621,1202.052856 
	C295.371002,1203.022217 232.360687,1202.379883 169.361298,1202.289795 
	C155.145370,1202.269531 142.424728,1206.456665 131.423279,1215.268188 
	C113.511536,1229.614746 103.801056,1248.322144 103.729111,1271.426392 
	C103.565102,1324.092163 103.669960,1376.758789 103.671547,1429.425049 
	C103.672104,1448.091553 103.717628,1466.758179 103.693993,1485.424683 
	C103.648125,1521.651855 134.232086,1555.320801 172.849121,1554.564453 
	C235.158127,1553.343994 297.508698,1554.136841 359.841156,1554.291748 
	C378.297485,1554.337646 393.460876,1547.379761 406.191101,1534.427856 
	C421.317261,1519.038330 427.321106,1500.168457 427.313019,1478.999756 
	C427.300781,1447.000000 427.313232,1415.000244 427.315277,1381.000366 
M1825.000000,1340.035156 
	C1798.422485,1340.035156 1771.844849,1340.035156 1744.772461,1340.035156 
	C1744.772461,1319.399536 1744.772461,1299.608521 1744.772461,1278.785889 
	C1820.686646,1278.785889 1896.131348,1278.785889 1971.864746,1278.785889 
	C1971.864746,1252.917847 1971.864746,1228.082397 1971.864746,1202.985229 
	C1872.307129,1202.985229 1773.217407,1202.985229 1674.478516,1202.985229 
	C1674.478516,1320.430054 1674.478516,1437.217773 1674.478516,1553.646729 
	C1774.108398,1553.646729 1872.944580,1553.646729 1971.816284,1553.646729 
	C1971.816284,1528.199585 1971.816284,1503.366089 1971.816284,1477.600098 
	C1895.868652,1477.600098 1820.422852,1477.600098 1744.820801,1477.600098 
	C1744.820801,1456.836670 1744.820801,1437.016235 1744.820801,1416.105957 
	C1806.121704,1416.105957 1866.880371,1416.105957 1927.493774,1416.105957 
	C1927.493774,1390.198975 1927.493774,1365.393799 1927.493774,1340.033813 
	C1893.559448,1340.033813 1860.279663,1340.033813 1825.000000,1340.035156 
M1277.856567,1712.828491 
	C1280.803345,1710.126953 1283.562622,1707.176880 1286.739502,1704.780396 
	C1291.925049,1700.869019 1293.961060,1696.215576 1293.800537,1689.475708 
	C1293.316650,1669.164062 1293.661987,1648.833130 1293.610840,1628.510010 
	C1293.604492,1625.981812 1293.157593,1623.454590 1292.915039,1620.927490 
	C1185.046143,1620.927490 1077.903076,1620.927490 970.596436,1620.927490 
	C970.596436,1646.500000 970.596436,1671.555542 970.596436,1697.636230 
	C1042.022949,1697.636230 1112.699951,1697.636230 1185.401123,1697.636230 
	C1179.755249,1702.894287 1175.729492,1706.702393 1171.641235,1710.442139 
	C1106.508179,1770.024170 1041.410522,1829.645142 976.135681,1889.071411 
	C971.532166,1893.262329 969.636475,1897.399170 969.759033,1903.626099 
	C970.158630,1923.941650 969.898376,1944.270020 969.948303,1964.593384 
	C969.954529,1967.119629 970.299072,1969.645020 970.477356,1972.044067 
	C991.030151,1974.122681 1286.285278,1973.246094 1293.639648,1971.042236 
	C1293.639648,1958.843628 1293.670654,1946.528320 1293.631104,1934.213257 
	C1293.590820,1921.710571 1293.858887,1909.192749 1293.461914,1895.831787 
	C1221.398193,1895.831787 1150.676025,1895.831787 1077.862305,1895.831787 
	C1145.249756,1834.174683 1211.032227,1773.986084 1277.856567,1712.828491 
M546.147888,1475.000000 
	C546.144470,1457.335693 546.122742,1439.671509 546.141541,1422.007202 
	C546.176636,1389.014160 546.234070,1356.020996 546.316711,1323.028076 
	C546.317139,1322.841675 546.792236,1322.622681 547.076599,1322.481079 
	C547.340149,1322.349976 547.645142,1322.302246 548.217102,1322.133667 
	C548.997314,1323.023071 549.915588,1323.962769 550.713623,1324.995361 
	C570.679321,1350.829224 590.630005,1376.674683 610.588013,1402.514526 
	C648.059143,1451.028564 685.585999,1499.499878 722.916016,1548.122437 
	C726.260864,1552.479004 729.568359,1554.644897 735.275574,1554.398438 
	C746.586304,1553.909912 757.932617,1554.243896 769.264221,1554.241211 
	C779.180115,1554.238770 789.096069,1554.240723 799.577515,1554.240723 
	C799.577515,1436.595703 799.577515,1319.842651 799.577515,1203.151367 
	C783.296448,1201.334961 735.660034,1201.916382 728.603638,1204.010254 
	C728.603638,1280.397705 728.603638,1356.850342 728.603638,1433.302856 
	C728.106445,1433.534668 727.609253,1433.766357 727.112000,1433.998169 
	C667.639771,1356.871216 608.167480,1279.744385 548.839661,1202.804810 
	C524.577454,1202.804810 500.695801,1202.804810 476.636688,1202.804810 
	C476.636688,1320.056763 476.636688,1436.825562 476.636688,1553.576172 
	C500.143585,1553.576172 522.926270,1553.576172 546.147888,1553.576172 
	C546.147888,1527.587280 546.147888,1502.293701 546.147888,1475.000000 
M1299.112305,1324.999146 
	C1299.112305,1401.210571 1299.112305,1477.421875 1299.112305,1553.885376 
	C1322.783813,1553.885376 1345.370117,1553.885376 1369.081055,1553.885376 
	C1369.081055,1476.521973 1369.081055,1399.494751 1369.081055,1322.467407 
	C1372.886719,1324.319702 1374.879761,1326.778076 1376.813354,1329.282227 
	C1432.793091,1401.786255 1488.815796,1474.257202 1544.639038,1546.881470 
	C1548.630981,1552.075073 1552.568481,1554.627563 1559.416748,1554.427368 
	C1577.727783,1553.892456 1596.064697,1554.258179 1614.390991,1554.203857 
	C1616.928101,1554.196289 1619.464111,1553.837402 1621.725342,1553.662476 
	C1621.725342,1436.241089 1621.725342,1319.518066 1621.725342,1202.868896 
	C1598.092529,1202.868896 1575.247681,1202.868896 1551.540771,1202.868896 
	C1551.540771,1280.101807 1551.540771,1356.800781 1551.540771,1435.716919 
	C1547.905151,1431.210205 1545.625244,1428.493286 1543.461670,1425.686523 
	C1487.742676,1353.404907 1431.983032,1281.154663 1376.447266,1208.732544 
	C1372.798340,1203.974243 1369.184692,1202.043945 1363.233398,1202.192871 
	C1347.249390,1202.592651 1331.248657,1202.329468 1315.254639,1202.329468 
	C1310.011353,1202.329468 1304.767944,1202.329468 1299.112305,1202.329468 
	C1299.112305,1243.214233 1299.112305,1283.106567 1299.112305,1324.999146 
M2278.348145,1659.001099 
	C2278.348145,1763.270630 2278.348145,1867.540283 2278.348145,1972.136719 
	C2302.206055,1972.136719 2325.289062,1972.136719 2349.177490,1972.136719 
	C2349.177490,1926.161255 2349.177490,1880.969238 2349.177490,1834.779053 
	C2353.200195,1834.779053 2356.454102,1834.779175 2359.708252,1834.779175 
	C2373.708252,1834.779297 2387.726074,1835.202515 2401.700684,1834.608032 
	C2409.159180,1834.290894 2413.769287,1836.678711 2418.321777,1842.692749 
	C2449.693115,1884.136597 2481.575439,1925.193359 2513.039795,1966.567627 
	C2516.680664,1971.355713 2520.463379,1973.113037 2526.355225,1972.999634 
	C2545.015137,1972.640137 2563.686035,1972.834717 2582.352539,1972.815918 
	C2584.927246,1972.813232 2587.501953,1972.815430 2591.042725,1972.815430 
	C2591.042725,1967.610352 2590.630127,1963.310303 2591.128174,1959.118408 
	C2592.180420,1950.264648 2589.124756,1943.393311 2583.640381,1936.387939 
	C2549.134033,1892.312500 2515.047607,1847.908325 2480.842041,1803.597656 
	C2479.084229,1801.320312 2477.507568,1798.903076 2475.861084,1796.571411 
	C2477.934326,1793.838013 2479.521240,1791.713623 2481.140869,1789.614624 
	C2516.153809,1744.241699 2551.185547,1698.883179 2586.146729,1653.470459 
	C2588.132080,1650.891724 2590.741211,1647.976196 2590.994629,1645.038940 
	C2591.672607,1637.186523 2591.225830,1629.236938 2591.225830,1620.783447 
	C2587.564697,1620.616577 2584.652832,1620.377808 2581.740723,1620.369263 
	C2567.407471,1620.326782 2553.073486,1620.265869 2538.741211,1620.376709 
	C2531.801758,1620.430420 2523.951416,1618.923828 2518.192627,1621.658813 
	C2512.796631,1624.221558 2509.521729,1631.376465 2505.476318,1636.635864 
	C2476.031494,1674.917969 2446.522461,1713.151489 2417.338135,1751.631348 
	C2413.464844,1756.738647 2409.533447,1758.674438 2403.201172,1758.474609 
	C2388.216064,1758.001709 2373.206055,1758.343628 2358.206055,1758.304932 
	C2355.276611,1758.297485 2352.347412,1758.059204 2348.703613,1757.895264 
	C2348.703613,1711.849365 2348.703613,1666.376343 2348.703613,1620.821777 
	C2325.085205,1620.821777 2302.215088,1620.821777 2278.346436,1620.821777 
	C2278.346436,1633.189697 2278.346436,1645.095703 2278.348145,1659.001099 
M500.376648,1768.999878 
	C500.380890,1811.645386 500.251617,1854.291870 500.509369,1896.935791 
	C500.557251,1904.853516 501.273834,1912.986450 503.205109,1920.635376 
	C511.436493,1953.236572 536.858887,1972.687744 570.991821,1972.761597 
	C629.296509,1972.887695 687.601562,1972.798218 745.906494,1972.774048 
	C751.234558,1972.771851 756.563843,1972.633301 761.890320,1972.479736 
	C774.682861,1972.111206 785.972046,1967.527344 795.791138,1959.562378 
	C815.155273,1943.854736 824.184998,1923.328613 824.164001,1898.440796 
	C824.088013,1808.484619 824.186707,1718.528564 824.183777,1628.572388 
	C824.183716,1626.043945 823.780396,1623.515625 823.561096,1620.940674 
	C800.013062,1620.940674 777.189941,1620.940674 753.397583,1620.940674 
	C753.397583,1712.930664 753.397583,1804.374023 753.397583,1895.735962 
	C691.940552,1895.735962 631.461792,1895.735962 569.945312,1895.735962 
	C569.945312,1803.761230 569.945312,1712.371094 569.945312,1620.876221 
	C546.391663,1620.876221 523.883240,1620.876221 500.376648,1620.876221 
	C500.376648,1669.909180 500.376648,1718.454468 500.376648,1768.999878 
M1061.000000,1554.237305 
	C1098.511230,1554.237305 1136.022461,1554.237305 1173.740723,1554.237305 
	C1173.740723,1528.145874 1173.740723,1503.320190 1173.740723,1477.617188 
	C1089.151123,1477.617188 1005.049438,1477.617188 920.112915,1477.617188 
	C920.112915,1385.295044 920.112915,1293.848999 920.112915,1202.348389 
	C896.493835,1202.348389 873.723755,1202.348389 850.826294,1202.348389 
	C850.826294,1319.790894 850.826294,1436.589844 850.826294,1554.237305 
	C920.547424,1554.237305 989.773682,1554.237305 1061.000000,1554.237305 
M1200.513916,1542.686523 
	C1200.513916,1546.256714 1200.513916,1549.826904 1200.513916,1553.819214 
	C1224.398682,1553.819214 1247.239136,1553.819214 1270.797852,1553.819214 
	C1270.797852,1436.763306 1270.797852,1320.050293 1270.797852,1202.837036 
	C1247.442383,1202.837036 1224.344849,1202.837036 1200.512207,1202.837036 
	C1200.512207,1315.830078 1200.512207,1428.293335 1200.513916,1542.686523 
M944.064331,1843.000000 
	C944.064331,1769.150879 944.064331,1695.301636 944.064331,1620.928711 
	C920.447144,1620.928711 897.646057,1620.928711 874.307068,1620.928711 
	C874.307068,1738.216919 874.307068,1855.202759 874.307068,1972.385498 
	C897.739136,1972.385498 920.600830,1972.385498 944.064331,1972.385498 
	C944.064331,1929.533691 944.064331,1887.266846 944.064331,1843.000000 
z"/>
<path fill="#FCFCFC" opacity="1.000000" stroke="none" 
	d="
M3264.066406,1895.887695 
	C3275.543213,1910.647339 3286.353516,1925.038696 3297.800293,1938.904663 
	C3302.377441,1944.449097 3304.401611,1950.057251 3303.793945,1957.092041 
	C3303.371338,1961.984863 3303.712891,1966.943604 3303.712891,1972.280396 
	C3300.350586,1972.491821 3297.742188,1972.790283 3295.132568,1972.798584 
	C3276.473389,1972.857666 3257.809082,1972.611816 3239.158447,1973.024048 
	C3233.456299,1973.150024 3230.085938,1971.122925 3226.756348,1966.756470 
	C3200.499023,1932.326294 3173.913330,1898.146118 3147.729248,1863.660889 
	C3143.884033,1858.596558 3139.968506,1856.601562 3133.597656,1856.747070 
	C3108.950195,1857.310547 3084.289307,1857.274292 3059.633545,1857.492065 
	C3057.007568,1857.515259 3054.383301,1857.740479 3050.566650,1857.931641 
	C3049.367432,1870.708252 3050.140869,1883.286621 3050.008057,1895.812378 
	C3049.873779,1908.472534 3049.982422,1921.135132 3049.983154,1933.796753 
	C3049.984131,1946.436157 3049.983398,1959.075439 3049.983398,1972.303589 
	C3026.586426,1972.303589 3003.741211,1972.303589 2980.336426,1972.303589 
	C2980.336426,1855.210938 2980.336426,1738.417725 2980.336426,1620.981812 
	C2983.447754,1620.817383 2986.354980,1620.529663 2989.262451,1620.529663 
	C3069.896729,1620.531006 3150.536377,1621.117920 3231.163574,1620.371460 
	C3277.023193,1619.946899 3303.750000,1658.000366 3303.679688,1692.159302 
	C3303.614990,1723.479858 3303.983643,1754.804810 3303.570557,1786.119995 
	C3303.139160,1818.818970 3282.134033,1846.686768 3252.396973,1854.743652 
	C3247.053955,1856.191284 3241.420898,1856.569336 3234.328125,1857.693848 
	C3244.572510,1870.833252 3254.113525,1883.071045 3264.066406,1895.887695 
M3049.983398,1766.871094 
	C3049.983398,1771.106689 3049.983398,1775.342285 3049.983398,1779.699707 
	C3111.380859,1779.699707 3171.786133,1779.699707 3232.056641,1779.699707 
	C3232.056641,1751.960571 3232.056641,1724.846436 3232.056641,1697.732178 
	C3171.186768,1697.732178 3111.035889,1697.732178 3049.983398,1697.732178 
	C3049.983398,1720.424683 3049.983398,1742.658936 3049.983398,1766.871094 
z"/>
<path fill="#FCFCFC" opacity="1.000000" stroke="none" 
	d="
M123.154495,1641.159912 
	C137.270737,1626.219971 154.134201,1620.236816 173.817505,1620.312134 
	C233.115250,1620.538452 292.456451,1621.781982 351.699158,1619.966919 
	C396.243500,1618.602051 427.546417,1652.312866 427.355347,1694.629761 
	C427.322266,1701.958740 427.332397,1709.287842 427.331726,1716.616943 
	C427.326385,1773.583496 427.323303,1830.550171 427.319580,1887.516724 
	C427.319397,1890.119507 427.319550,1892.722290 427.319550,1896.049072 
	C439.489655,1896.049072 451.023346,1896.049072 462.340820,1896.049072 
	C464.416016,1903.723999 464.862885,1960.039551 463.019012,1972.787354 
	C459.867035,1972.787354 456.588409,1972.786987 453.309814,1972.787231 
	C361.030548,1972.793823 268.751312,1972.816528 176.472046,1972.800171 
	C132.228348,1972.792236 103.744545,1944.179565 103.694939,1899.545166 
	C103.617935,1830.252563 103.725929,1760.959595 103.633736,1691.666992 
	C103.608223,1672.497925 109.734093,1655.829590 123.154495,1641.159912 
M173.582932,1713.028320 
	C173.582932,1773.902466 173.582932,1834.776489 173.582932,1895.668945 
	C235.066162,1895.668945 295.502441,1895.668945 355.665527,1895.668945 
	C355.665527,1829.188721 355.665527,1763.361816 355.665527,1697.764648 
	C294.791199,1697.764648 234.587173,1697.764648 173.582947,1697.764648 
	C173.582947,1702.495850 173.582947,1706.762451 173.582932,1713.028320 
z"/>
<path fill="#FCFCFC" opacity="1.000000" stroke="none" 
	d="
M1712.140869,1704.100586 
	C1733.866455,1675.816772 1755.201904,1648.127441 1776.381836,1620.639893 
	C1800.558472,1620.639893 1824.184937,1620.639893 1848.586914,1620.639893 
	C1848.586914,1737.684937 1848.586914,1854.494141 1848.586914,1972.280029 
	C1825.666138,1972.280029 1802.577393,1972.280029 1778.794678,1972.280029 
	C1778.794678,1895.111816 1778.794678,1817.936523 1778.794678,1740.994263 
	C1777.784424,1740.658936 1777.474243,1740.504639 1777.149780,1740.464233 
	C1776.880371,1740.430420 1776.481323,1740.426880 1776.333862,1740.587769 
	C1775.435547,1741.567993 1774.550659,1742.566406 1773.737915,1743.618042 
	C1738.695679,1788.944824 1703.661743,1834.278198 1668.609863,1879.597656 
	C1668.434326,1879.824463 1668.017090,1879.864502 1666.696045,1880.416748 
	C1630.486450,1833.805176 1594.093384,1786.957397 1557.700439,1740.109741 
	C1557.166382,1740.282593 1556.632446,1740.455322 1556.098389,1740.628174 
	C1556.098389,1817.683716 1556.098389,1894.739380 1556.098389,1972.523193 
	C1532.328979,1972.523193 1509.487793,1972.523193 1486.155762,1972.523193 
	C1486.155762,1855.414673 1486.155762,1738.532471 1486.155762,1620.913208 
	C1488.610962,1620.724731 1491.156006,1620.365234 1493.701782,1620.360229 
	C1512.031738,1620.324585 1530.367676,1620.633911 1548.688477,1620.229370 
	C1555.313354,1620.083130 1559.540649,1622.058105 1563.640015,1627.451416 
	C1596.297607,1670.416992 1629.297119,1713.122681 1662.200562,1755.901245 
	C1663.616577,1757.742432 1665.118164,1759.517944 1667.529785,1762.497437 
	C1682.472290,1742.965576 1697.111450,1723.830200 1712.140869,1704.100586 
z"/>
<path fill="#FBFBFB" opacity="1.000000" stroke="none" 
	d="
M2227.408203,1824.000488 
	C2227.408203,1873.904297 2227.408203,1922.807983 2227.408203,1972.478638 
	C2203.465576,1972.478638 2180.332275,1972.478638 2156.462646,1972.478638 
	C2156.462646,1934.973755 2156.462646,1897.798340 2156.462646,1860.075195 
	C2095.316162,1860.075195 2034.897827,1860.075195 1973.630859,1860.075195 
	C1973.630859,1897.480469 1973.630859,1934.627808 1973.630859,1972.362549 
	C1950.249023,1972.362549 1927.705078,1972.362549 1904.370605,1972.362549 
	C1904.163330,1970.281494 1903.758667,1968.110596 1903.758057,1965.939819 
	C1903.729980,1874.311401 1903.616821,1782.682861 1903.816406,1691.054810 
	C1903.875366,1663.986328 1915.886475,1643.057739 1938.901733,1628.783936 
	C1948.116577,1623.068970 1958.493652,1620.462402 1969.345825,1620.449097 
	C2033.652222,1620.370728 2097.959473,1620.215698 2162.264893,1620.449951 
	C2189.787109,1620.550171 2216.075195,1641.890625 2223.814453,1670.453369 
	C2226.219238,1679.327881 2227.197266,1688.827271 2227.274658,1698.053589 
	C2227.624023,1739.699951 2227.415771,1781.350952 2227.408203,1824.000488 
M2156.366943,1719.011963 
	C2156.366943,1711.833374 2156.366943,1704.654907 2156.366943,1697.744385 
	C2094.763916,1697.744385 2034.588623,1697.744385 1974.252197,1697.744385 
	C1974.252197,1726.302856 1974.252197,1754.377930 1974.252197,1782.211182 
	C2035.127197,1782.211182 2095.303223,1782.211182 2156.366943,1782.211182 
	C2156.366943,1761.473877 2156.366943,1741.243164 2156.366943,1719.011963 
z"/>
<path fill="#FBFBFB" opacity="1.000000" stroke="none" 
	d="
M2891.115723,1809.937744 
	C2891.112061,1818.520996 2891.112061,1826.117554 2891.112061,1834.531372 
	C2829.724854,1834.531372 2769.207275,1834.531372 2708.094727,1834.531372 
	C2708.094727,1855.228394 2708.094727,1875.103149 2708.094727,1895.951782 
	C2783.285645,1895.951782 2858.758301,1895.951782 2934.921387,1895.951782 
	C2934.921387,1921.741455 2934.921387,1946.578247 2934.921387,1972.195312 
	C2835.981201,1972.195312 2736.838867,1972.195312 2637.017578,1972.195312 
	C2637.017578,1855.413818 2637.017578,1738.618164 2637.017578,1621.079834 
	C2735.978271,1621.079834 2835.101074,1621.079834 2934.935547,1621.079834 
	C2934.935547,1646.005615 2934.935547,1671.084839 2934.935547,1696.866699 
	C2859.373779,1696.866699 2784.151123,1696.866699 2708.211914,1696.866699 
	C2708.211914,1717.358276 2708.211914,1737.177734 2708.211914,1758.112793 
	C2768.595459,1758.112793 2829.359375,1758.112793 2891.119385,1758.112793 
	C2891.119385,1775.784424 2891.119385,1792.367676 2891.115723,1809.937744 
z"/>
<path fill="#FDFDFD" opacity="1.000000" stroke="none" 
	d="
M427.315247,1382.000488 
	C427.313232,1415.000244 427.300781,1447.000000 427.313019,1478.999756 
	C427.321106,1500.168457 421.317261,1519.038330 406.191101,1534.427856 
	C393.460876,1547.379761 378.297485,1554.337646 359.841156,1554.291748 
	C297.508698,1554.136841 235.158127,1553.343994 172.849121,1554.564453 
	C134.232086,1555.320801 103.648125,1521.651855 103.693993,1485.424683 
	C103.717628,1466.758179 103.672104,1448.091553 103.671547,1429.425049 
	C103.669960,1376.758789 103.565102,1324.092163 103.729111,1271.426392 
	C103.801056,1248.322144 113.511536,1229.614746 131.423279,1215.268188 
	C142.424728,1206.456665 155.145370,1202.269531 169.361298,1202.289795 
	C232.360687,1202.379883 295.371002,1203.022217 358.355621,1202.052856 
	C393.604889,1201.510376 421.280914,1230.490967 425.964966,1261.081177 
	C426.968933,1267.637695 427.264709,1274.355225 427.288269,1281.000732 
	C427.406525,1314.333496 427.325958,1347.667114 427.315247,1382.000488 
M270.999878,1477.738770 
	C299.201385,1477.738770 327.402924,1477.738770 355.730743,1477.738770 
	C355.730743,1410.983032 355.730743,1345.246826 355.730743,1279.210205 
	C294.961304,1279.210205 234.807358,1279.210205 174.732162,1279.210205 
	C172.716080,1290.485107 173.182159,1470.655151 175.163788,1477.553955 
	C175.803116,1477.659058 176.442520,1477.856689 177.081741,1477.856079 
	C207.721115,1477.828491 238.360489,1477.783813 270.999878,1477.738770 
z"/>
<path fill="#FEFEFE" opacity="1.000000" stroke="none" 
	d="
M1826.000000,1340.034424 
	C1860.279663,1340.033813 1893.559448,1340.033813 1927.493774,1340.033813 
	C1927.493774,1365.393799 1927.493774,1390.198975 1927.493774,1416.105957 
	C1866.880371,1416.105957 1806.121704,1416.105957 1744.820801,1416.105957 
	C1744.820801,1437.016235 1744.820801,1456.836670 1744.820801,1477.600098 
	C1820.422852,1477.600098 1895.868652,1477.600098 1971.816284,1477.600098 
	C1971.816284,1503.366089 1971.816284,1528.199585 1971.816284,1553.646729 
	C1872.944580,1553.646729 1774.108398,1553.646729 1674.478516,1553.646729 
	C1674.478516,1437.217773 1674.478516,1320.430054 1674.478516,1202.985229 
	C1773.217407,1202.985229 1872.307129,1202.985229 1971.864746,1202.985229 
	C1971.864746,1228.082397 1971.864746,1252.917847 1971.864746,1278.785889 
	C1896.131348,1278.785889 1820.686646,1278.785889 1744.772461,1278.785889 
	C1744.772461,1299.608521 1744.772461,1319.399536 1744.772461,1340.035156 
	C1771.844849,1340.035156 1798.422485,1340.035156 1826.000000,1340.034424 
z"/>
<path fill="#FCFCFC" opacity="1.000000" stroke="none" 
	d="
M1277.335693,1713.312988 
	C1211.032227,1773.986084 1145.249756,1834.174683 1077.862305,1895.831787 
	C1150.676025,1895.831787 1221.398193,1895.831787 1293.461914,1895.831787 
	C1293.858887,1909.192749 1293.590820,1921.710571 1293.631104,1934.213257 
	C1293.670654,1946.528320 1293.639648,1958.843628 1293.639648,1971.042236 
	C1286.285278,1973.246094 991.030151,1974.122681 970.477356,1972.044067 
	C970.299072,1969.645020 969.954529,1967.119629 969.948303,1964.593384 
	C969.898376,1944.270020 970.158630,1923.941650 969.759033,1903.626099 
	C969.636475,1897.399170 971.532166,1893.262329 976.135681,1889.071411 
	C1041.410522,1829.645142 1106.508179,1770.024170 1171.641235,1710.442139 
	C1175.729492,1706.702393 1179.755249,1702.894287 1185.401123,1697.636230 
	C1112.699951,1697.636230 1042.022949,1697.636230 970.596436,1697.636230 
	C970.596436,1671.555542 970.596436,1646.500000 970.596436,1620.927490 
	C1077.903076,1620.927490 1185.046143,1620.927490 1292.915039,1620.927490 
	C1293.157593,1623.454590 1293.604492,1625.981812 1293.610840,1628.510010 
	C1293.661987,1648.833130 1293.316650,1669.164062 1293.800537,1689.475708 
	C1293.961060,1696.215576 1291.925049,1700.869019 1286.739502,1704.780396 
	C1283.562622,1707.176880 1280.803345,1710.126953 1277.335693,1713.312988 
z"/>
<path fill="#FDFDFD" opacity="1.000000" stroke="none" 
	d="
M546.147888,1476.000000 
	C546.147888,1502.293701 546.147888,1527.587280 546.147888,1553.576172 
	C522.926270,1553.576172 500.143585,1553.576172 476.636688,1553.576172 
	C476.636688,1436.825562 476.636688,1320.056763 476.636688,1202.804810 
	C500.695801,1202.804810 524.577454,1202.804810 548.839661,1202.804810 
	C608.167480,1279.744385 667.639771,1356.871216 727.112000,1433.998169 
	C727.609253,1433.766357 728.106445,1433.534668 728.603638,1433.302856 
	C728.603638,1356.850342 728.603638,1280.397705 728.603638,1204.010254 
	C735.660034,1201.916382 783.296448,1201.334961 799.577515,1203.151367 
	C799.577515,1319.842651 799.577515,1436.595703 799.577515,1554.240723 
	C789.096069,1554.240723 779.180115,1554.238770 769.264221,1554.241211 
	C757.932617,1554.243896 746.586304,1553.909912 735.275574,1554.398438 
	C729.568359,1554.644897 726.260864,1552.479004 722.916016,1548.122437 
	C685.585999,1499.499878 648.059143,1451.028564 610.588013,1402.514526 
	C590.630005,1376.674683 570.679321,1350.829224 550.713623,1324.995361 
	C549.915588,1323.962769 548.997314,1323.023071 548.217102,1322.133667 
	C547.645142,1322.302246 547.340149,1322.349976 547.076599,1322.481079 
	C546.792236,1322.622681 546.317139,1322.841675 546.316711,1323.028076 
	C546.234070,1356.020996 546.176636,1389.014160 546.141541,1422.007202 
	C546.122742,1439.671509 546.144470,1457.335693 546.147888,1476.000000 
z"/>
<path fill="#FEFEFE" opacity="1.000000" stroke="none" 
	d="
M1299.112305,1323.999023 
	C1299.112305,1283.106567 1299.112305,1243.214233 1299.112305,1202.329468 
	C1304.767944,1202.329468 1310.011353,1202.329468 1315.254639,1202.329468 
	C1331.248657,1202.329468 1347.249390,1202.592651 1363.233398,1202.192871 
	C1369.184692,1202.043945 1372.798340,1203.974243 1376.447266,1208.732544 
	C1431.983032,1281.154663 1487.742676,1353.404907 1543.461670,1425.686523 
	C1545.625244,1428.493286 1547.905151,1431.210205 1551.540771,1435.716919 
	C1551.540771,1356.800781 1551.540771,1280.101807 1551.540771,1202.868896 
	C1575.247681,1202.868896 1598.092529,1202.868896 1621.725342,1202.868896 
	C1621.725342,1319.518066 1621.725342,1436.241089 1621.725342,1553.662476 
	C1619.464111,1553.837402 1616.928101,1554.196289 1614.390991,1554.203857 
	C1596.064697,1554.258179 1577.727783,1553.892456 1559.416748,1554.427368 
	C1552.568481,1554.627563 1548.630981,1552.075073 1544.639038,1546.881470 
	C1488.815796,1474.257202 1432.793091,1401.786255 1376.813354,1329.282227 
	C1374.879761,1326.778076 1372.886719,1324.319702 1369.081055,1322.467407 
	C1369.081055,1399.494751 1369.081055,1476.521973 1369.081055,1553.885376 
	C1345.370117,1553.885376 1322.783813,1553.885376 1299.112305,1553.885376 
	C1299.112305,1477.421875 1299.112305,1401.210571 1299.112305,1323.999023 
z"/>
<path fill="#FDFDFD" opacity="1.000000" stroke="none" 
	d="
M2278.347168,1658.001465 
	C2278.346436,1645.095703 2278.346436,1633.189697 2278.346436,1620.821777 
	C2302.215088,1620.821777 2325.085205,1620.821777 2348.703613,1620.821777 
	C2348.703613,1666.376343 2348.703613,1711.849365 2348.703613,1757.895264 
	C2352.347412,1758.059204 2355.276611,1758.297485 2358.206055,1758.304932 
	C2373.206055,1758.343628 2388.216064,1758.001709 2403.201172,1758.474609 
	C2409.533447,1758.674438 2413.464844,1756.738647 2417.338135,1751.631348 
	C2446.522461,1713.151489 2476.031494,1674.917969 2505.476318,1636.635864 
	C2509.521729,1631.376465 2512.796631,1624.221558 2518.192627,1621.658813 
	C2523.951416,1618.923828 2531.801758,1620.430420 2538.741211,1620.376709 
	C2553.073486,1620.265869 2567.407471,1620.326782 2581.740723,1620.369263 
	C2584.652832,1620.377808 2587.564697,1620.616577 2591.225830,1620.783447 
	C2591.225830,1629.236938 2591.672607,1637.186523 2590.994629,1645.038940 
	C2590.741211,1647.976196 2588.132080,1650.891724 2586.146729,1653.470459 
	C2551.185547,1698.883179 2516.153809,1744.241699 2481.140869,1789.614624 
	C2479.521240,1791.713623 2477.934326,1793.838013 2475.861084,1796.571411 
	C2477.507568,1798.903076 2479.084229,1801.320312 2480.842041,1803.597656 
	C2515.047607,1847.908325 2549.134033,1892.312500 2583.640381,1936.387939 
	C2589.124756,1943.393311 2592.180420,1950.264648 2591.128174,1959.118408 
	C2590.630127,1963.310303 2591.042725,1967.610352 2591.042725,1972.815430 
	C2587.501953,1972.815430 2584.927246,1972.813232 2582.352539,1972.815918 
	C2563.686035,1972.834717 2545.015137,1972.640137 2526.355225,1972.999634 
	C2520.463379,1973.113037 2516.680664,1971.355713 2513.039795,1966.567627 
	C2481.575439,1925.193359 2449.693115,1884.136597 2418.321777,1842.692749 
	C2413.769287,1836.678711 2409.159180,1834.290894 2401.700684,1834.608032 
	C2387.726074,1835.202515 2373.708252,1834.779297 2359.708252,1834.779175 
	C2356.454102,1834.779175 2353.200195,1834.779053 2349.177490,1834.779053 
	C2349.177490,1880.969238 2349.177490,1926.161255 2349.177490,1972.136719 
	C2325.289062,1972.136719 2302.206055,1972.136719 2278.348145,1972.136719 
	C2278.348145,1867.540283 2278.348145,1763.270630 2278.347168,1658.001465 
z"/>
<path fill="#FDFDFD" opacity="1.000000" stroke="none" 
	d="
M500.376648,1767.999756 
	C500.376648,1718.454468 500.376648,1669.909180 500.376648,1620.876221 
	C523.883240,1620.876221 546.391663,1620.876221 569.945312,1620.876221 
	C569.945312,1712.371094 569.945312,1803.761230 569.945312,1895.735962 
	C631.461792,1895.735962 691.940552,1895.735962 753.397583,1895.735962 
	C753.397583,1804.374023 753.397583,1712.930664 753.397583,1620.940674 
	C777.189941,1620.940674 800.013062,1620.940674 823.561096,1620.940674 
	C823.780396,1623.515625 824.183716,1626.043945 824.183777,1628.572388 
	C824.186707,1718.528564 824.088013,1808.484619 824.164001,1898.440796 
	C824.184998,1923.328613 815.155273,1943.854736 795.791138,1959.562378 
	C785.972046,1967.527344 774.682861,1972.111206 761.890320,1972.479736 
	C756.563843,1972.633301 751.234558,1972.771851 745.906494,1972.774048 
	C687.601562,1972.798218 629.296509,1972.887695 570.991821,1972.761597 
	C536.858887,1972.687744 511.436493,1953.236572 503.205109,1920.635376 
	C501.273834,1912.986450 500.557251,1904.853516 500.509369,1896.935791 
	C500.251617,1854.291870 500.380890,1811.645386 500.376648,1767.999756 
z"/>
<path fill="#FDFDFD" opacity="1.000000" stroke="none" 
	d="
M1060.000000,1554.237305 
	C989.773682,1554.237305 920.547424,1554.237305 850.826294,1554.237305 
	C850.826294,1436.589844 850.826294,1319.790894 850.826294,1202.348389 
	C873.723755,1202.348389 896.493835,1202.348389 920.112915,1202.348389 
	C920.112915,1293.848999 920.112915,1385.295044 920.112915,1477.617188 
	C1005.049438,1477.617188 1089.151123,1477.617188 1173.740723,1477.617188 
	C1173.740723,1503.320190 1173.740723,1528.145874 1173.740723,1554.237305 
	C1136.022461,1554.237305 1098.511230,1554.237305 1060.000000,1554.237305 
z"/>
<path fill="#F9F9F9" opacity="1.000000" stroke="none" 
	d="
M1200.513062,1541.721680 
	C1200.512207,1428.293335 1200.512207,1315.830078 1200.512207,1202.837036 
	C1224.344849,1202.837036 1247.442383,1202.837036 1270.797852,1202.837036 
	C1270.797852,1320.050293 1270.797852,1436.763306 1270.797852,1553.819214 
	C1247.239136,1553.819214 1224.398682,1553.819214 1200.513916,1553.819214 
	C1200.513916,1549.826904 1200.513916,1546.256714 1200.513062,1541.721680 
z"/>
<path fill="#FDFDFD" opacity="1.000000" stroke="none" 
	d="
M944.064331,1844.000000 
	C944.064331,1887.266846 944.064331,1929.533691 944.064331,1972.385498 
	C920.600830,1972.385498 897.739136,1972.385498 874.307068,1972.385498 
	C874.307068,1855.202759 874.307068,1738.216919 874.307068,1620.928711 
	C897.646057,1620.928711 920.447144,1620.928711 944.064331,1620.928711 
	C944.064331,1695.301636 944.064331,1769.150879 944.064331,1844.000000 
z"/>
<path fill="#000000" opacity="1.000000" stroke="none" 
	d="
M3049.983398,1765.882080 
	C3049.983398,1742.658936 3049.983398,1720.424683 3049.983398,1697.732178 
	C3111.035889,1697.732178 3171.186768,1697.732178 3232.056641,1697.732178 
	C3232.056641,1724.846436 3232.056641,1751.960571 3232.056641,1779.699707 
	C3171.786133,1779.699707 3111.380859,1779.699707 3049.983398,1779.699707 
	C3049.983398,1775.342285 3049.983398,1771.106689 3049.983398,1765.882080 
z"/>
<path fill="#000000" opacity="1.000000" stroke="none" 
	d="
M173.582947,1712.028687 
	C173.582947,1706.762451 173.582947,1702.495850 173.582947,1697.764648 
	C234.587173,1697.764648 294.791199,1697.764648 355.665527,1697.764648 
	C355.665527,1763.361816 355.665527,1829.188721 355.665527,1895.668945 
	C295.502441,1895.668945 235.066162,1895.668945 173.582932,1895.668945 
	C173.582932,1834.776489 173.582932,1773.902466 173.582947,1712.028687 
z"/>
<path fill="#000000" opacity="1.000000" stroke="none" 
	d="
M2156.366943,1720.012207 
	C2156.366943,1741.243164 2156.366943,1761.473877 2156.366943,1782.211182 
	C2095.303223,1782.211182 2035.127197,1782.211182 1974.252197,1782.211182 
	C1974.252197,1754.377930 1974.252197,1726.302856 1974.252197,1697.744385 
	C2034.588623,1697.744385 2094.763916,1697.744385 2156.366943,1697.744385 
	C2156.366943,1704.654907 2156.366943,1711.833374 2156.366943,1720.012207 
z"/>
<path fill="#020202" opacity="1.000000" stroke="none" 
	d="
M269.999878,1477.739990 
	C238.360489,1477.783813 207.721115,1477.828491 177.081741,1477.856079 
	C176.442520,1477.856689 175.803116,1477.659058 175.164886,1477.547363 
	C173.182159,1470.655151 172.716080,1290.485107 174.732162,1279.210205 
	C234.807358,1279.210205 294.961304,1279.210205 355.730743,1279.210205 
	C355.730743,1345.246826 355.730743,1410.983032 355.730743,1477.738770 
	C327.402924,1477.738770 299.201385,1477.738770 269.999878,1477.739990 
z"/>
</svg>